<svg width="51" height="51" viewBox="0 0 51 51" fill="none" xmlns="http://www.w3.org/2000/svg">
<path opacity="0.5" d="M34.7863 39.4212C41.8084 39.4212 47.5 33.6666 47.5 26.5668C47.5 20.9397 43.9244 16.1572 38.9449 14.4158C38.2373 7.99426 32.8484 3 26.3091 3C19.287 3 13.5954 8.75455 13.5954 15.8544C13.5954 17.4251 13.8736 18.9274 14.3831 20.3206C13.7746 20.1995 13.1562 20.1385 12.5363 20.1385C7.26977 20.1407 3 24.4566 3 29.781C3 35.1053 7.26977 39.4212 12.5363 39.4212H34.7863Z" fill="#626262"/>
<path fill-rule="evenodd" clip-rule="evenodd" d="M25.3167 30.2476C25.6292 30.5677 25.8047 31.0016 25.8047 31.454C25.8047 31.9065 25.6292 32.3404 25.3167 32.6605L20.8667 37.2131C20.7139 37.3809 20.5297 37.5154 20.325 37.6087C20.1203 37.702 19.8993 37.7522 19.6753 37.7562C19.4512 37.7603 19.2286 37.7181 19.0209 37.6323C18.8131 37.5464 18.6243 37.4186 18.4659 37.2565C18.3074 37.0944 18.1825 36.9012 18.0985 36.6887C18.0146 36.4761 17.9734 36.2484 17.9773 36.0192C17.9813 35.7899 18.0303 35.5638 18.1216 35.3544C18.2128 35.145 18.3443 34.9565 18.5082 34.8002L22.9582 30.2476C23.2711 29.9279 23.6952 29.7483 24.1375 29.7483C24.5797 29.7483 25.0038 29.9279 25.3167 30.2476ZM35.3292 30.2476C35.6417 30.5677 35.8172 31.0016 35.8172 31.454C35.8172 31.9065 35.6417 32.3404 35.3292 32.6605L30.8792 37.2131C30.7264 37.3809 30.5422 37.5154 30.3375 37.6087C30.1328 37.702 29.9118 37.7522 29.6878 37.7562C29.4637 37.7603 29.2411 37.7181 29.0334 37.6323C28.8256 37.5464 28.6368 37.4186 28.4784 37.2565C28.3199 37.0944 28.195 36.9012 28.111 36.6887C28.0271 36.4761 27.9859 36.2484 27.9898 36.0192C27.9938 35.7899 28.0428 35.5638 28.1341 35.3544C28.2253 35.145 28.3568 34.9565 28.5207 34.8002L32.9707 30.2476C33.2836 29.9279 33.7077 29.7483 34.15 29.7483C34.5922 29.7483 35.0163 29.9279 35.3292 30.2476ZM16.4167 38.2147C16.7292 38.5348 16.9047 38.9687 16.9047 39.4212C16.9047 39.8736 16.7292 40.3075 16.4167 40.6276L11.9667 45.1803C11.6504 45.4818 11.232 45.646 10.7997 45.6382C10.3673 45.6304 9.95485 45.4512 9.6491 45.1384C9.34336 44.8256 9.16823 44.4036 9.1606 43.9613C9.15297 43.5191 9.31345 43.091 9.60821 42.7674L14.0582 38.2147C14.3711 37.895 14.7952 37.7154 15.2375 37.7154C15.6797 37.7154 16.1038 37.895 16.4167 38.2147ZM37.5542 38.2147C37.8667 38.5348 38.0422 38.9687 38.0422 39.4212C38.0422 39.8736 37.8667 40.3075 37.5542 40.6276L33.1042 45.1803C32.9514 45.348 32.7672 45.4825 32.5625 45.5759C32.3578 45.6692 32.1368 45.7193 31.9128 45.7234C31.6887 45.7274 31.4661 45.6853 31.2584 45.5994C31.0506 45.5135 30.8618 45.3857 30.7034 45.2236C30.5449 45.0615 30.42 44.8684 30.336 44.6558C30.2521 44.4432 30.2109 44.2155 30.2148 43.9863C30.2188 43.7571 30.2678 43.531 30.3591 43.3216C30.4503 43.1121 30.5818 42.9237 30.7457 42.7674L35.1957 38.2147C35.5086 37.895 35.9327 37.7154 36.375 37.7154C36.8172 37.7154 37.2413 37.895 37.5542 38.2147ZM26.4292 40.491C26.7417 40.8111 26.9172 41.2451 26.9172 41.6975C26.9172 42.1499 26.7417 42.5838 26.4292 42.9039L21.9792 47.4566C21.8264 47.6243 21.6422 47.7589 21.4375 47.8522C21.2328 47.9455 21.0118 47.9957 20.7878 47.9997C20.5637 48.0038 20.3411 47.9616 20.1334 47.8757C19.9256 47.7899 19.7368 47.662 19.5784 47.4999C19.4199 47.3378 19.295 47.1447 19.211 46.9321C19.1271 46.7195 19.0859 46.4918 19.0898 46.2626C19.0938 46.0334 19.1428 45.8073 19.2341 45.5979C19.3253 45.3885 19.4568 45.2 19.6207 45.0437L24.0707 40.491C24.3836 40.1713 24.8077 39.9918 25.25 39.9918C25.6922 39.9918 26.1163 40.1713 26.4292 40.491Z" fill="#A8DAFF"/>
<path d="M25.3168 30.2476C25.6293 30.5677 25.8048 31.0016 25.8048 31.4541C25.8048 31.9065 25.6293 32.3404 25.3168 32.6605L20.8668 37.2132C20.7125 37.3726 20.5288 37.4991 20.3264 37.5854C20.124 37.6718 19.9068 37.7162 19.6875 37.7162C19.4682 37.7162 19.2511 37.6718 19.0487 37.5854C18.8463 37.4991 18.6626 37.3726 18.5083 37.2132C18.3525 37.0553 18.2288 36.8674 18.1444 36.6603C18.06 36.4532 18.0165 36.2311 18.0165 36.0067C18.0165 35.7823 18.06 35.5602 18.1444 35.3531C18.2288 35.1461 18.3525 34.9581 18.5083 34.8003L22.9583 30.2476C23.2712 29.9279 23.6953 29.7483 24.1375 29.7483C24.5798 29.7483 25.0039 29.9279 25.3168 30.2476ZM32.9708 30.2476L28.5208 34.8003C28.3568 34.9565 28.2253 35.145 28.1341 35.3544C28.0429 35.5639 27.9939 35.7899 27.9899 36.0192C27.986 36.2484 28.0272 36.4761 28.1111 36.6887C28.195 36.9013 28.32 37.0944 28.4784 37.2565C28.6369 37.4186 28.8256 37.5464 29.0334 37.6323C29.2412 37.7181 29.4638 37.7603 29.6878 37.7563C29.9119 37.7522 30.1329 37.702 30.3376 37.6087C30.5423 37.5154 30.7265 37.3809 30.8793 37.2132L35.3293 32.6605C35.4932 32.5042 35.6247 32.3157 35.7159 32.1063C35.8072 31.8969 35.8562 31.6708 35.8601 31.4416C35.8641 31.2124 35.8229 30.9847 35.739 30.7721C35.655 30.5595 35.5301 30.3664 35.3716 30.2043C35.2132 30.0421 35.0244 29.9143 34.8166 29.8285C34.6088 29.7426 34.3863 29.7004 34.1622 29.7045C33.9382 29.7085 33.7172 29.7587 33.5125 29.852C33.3078 29.9453 33.1236 30.0799 32.9708 30.2476Z" fill="#A8DAFF"/>
</svg>
