<svg width="40" height="40" viewBox="0 0 40 40" fill="none" xmlns="http://www.w3.org/2000/svg">
<path d="M21.25 6.25V2.5C21.25 2.16848 21.1183 1.85054 20.8839 1.61612C20.6495 1.3817 20.3315 1.25 20 1.25C19.6685 1.25 19.3505 1.3817 19.1161 1.61612C18.8817 1.85054 18.75 2.16848 18.75 2.5V6.25C18.75 6.58152 18.8817 6.89946 19.1161 7.13388C19.3505 7.3683 19.6685 7.5 20 7.5C20.3315 7.5 20.6495 7.3683 20.8839 7.13388C21.1183 6.89946 21.25 6.58152 21.25 6.25ZM20 10C21.9778 10 23.9112 10.5865 25.5557 11.6853C27.2002 12.7841 28.4819 14.3459 29.2388 16.1732C29.9957 18.0004 30.1937 20.0111 29.8079 21.9509C29.422 23.8907 28.4696 25.6725 27.0711 27.0711C25.6725 28.4696 23.8907 29.422 21.9509 29.8079C20.0111 30.1937 18.0004 29.9957 16.1732 29.2388C14.3459 28.4819 12.7841 27.2002 11.6853 25.5557C10.5865 23.9112 10 21.9778 10 20C10.0029 17.3487 11.0574 14.8069 12.9321 12.9321C14.8069 11.0574 17.3487 10.0029 20 10ZM30.8844 10.8844C30.6498 11.1189 30.3317 11.2507 30 11.2507C29.6683 11.2507 29.3502 11.1189 29.1156 10.8844C28.8811 10.6498 28.7493 10.3317 28.7493 10C28.7493 9.6683 28.8811 9.35018 29.1156 9.11563L31.6156 6.61563C31.8502 6.38107 32.1683 6.24931 32.5 6.24931C32.8317 6.24931 33.1498 6.38107 33.3844 6.61563C33.6189 6.85018 33.7507 7.1683 33.7507 7.5C33.7507 7.8317 33.6189 8.14982 33.3844 8.38437L30.8844 10.8844ZM30.8844 29.1156L33.3844 31.6156C33.6189 31.8502 33.7507 32.1683 33.7507 32.5C33.7507 32.8317 33.6189 33.1498 33.3844 33.3844C33.1498 33.6189 32.8317 33.7507 32.5 33.7507C32.1683 33.7507 31.8502 33.6189 31.6156 33.3844L29.1156 30.8844C28.9995 30.7682 28.9074 30.6304 28.8445 30.4786C28.7817 30.3269 28.7493 30.1642 28.7493 30C28.7493 29.8358 28.7817 29.6731 28.8445 29.5214C28.9074 29.3696 28.9995 29.2318 29.1156 29.1156C29.2318 28.9995 29.3696 28.9074 29.5214 28.8445C29.6731 28.7817 29.8358 28.7493 30 28.7493C30.1642 28.7493 30.3269 28.7817 30.4786 28.8445C30.6304 28.9074 30.7682 28.9995 30.8844 29.1156ZM10 11.25C9.8358 11.2501 9.67318 11.2179 9.52144 11.1552C9.36969 11.0924 9.2318 11.0004 9.11562 10.8844L6.61562 8.38437C6.38107 8.14982 6.2493 7.8317 6.2493 7.5C6.2493 7.1683 6.38107 6.85018 6.61562 6.61563C6.85018 6.38107 7.1683 6.24931 7.5 6.24931C7.8317 6.24931 8.14982 6.38107 8.38438 6.61563L10.8844 9.11563C11.0594 9.29044 11.1786 9.51326 11.2269 9.75587C11.2752 9.99847 11.2505 10.25 11.1558 10.4785C11.0611 10.707 10.9007 10.9023 10.695 11.0397C10.4892 11.177 10.2474 11.2502 10 11.25ZM9.11562 29.1156C9.35018 28.8811 9.6683 28.7493 10 28.7493C10.3317 28.7493 10.6498 28.8811 10.8844 29.1156C11.1189 29.3502 11.2507 29.6683 11.2507 30C11.2507 30.3317 11.1189 30.6498 10.8844 30.8844L8.38438 33.3844C8.26824 33.5005 8.13036 33.5926 7.97862 33.6555C7.82688 33.7183 7.66424 33.7507 7.5 33.7507C7.33576 33.7507 7.17312 33.7183 7.02138 33.6555C6.86964 33.5926 6.73176 33.5005 6.61562 33.3844C6.49949 33.2682 6.40736 33.1304 6.34451 32.9786C6.28166 32.8269 6.2493 32.6642 6.2493 32.5C6.2493 32.3358 6.28166 32.1731 6.34451 32.0214C6.40736 31.8696 6.49949 31.7318 6.61562 31.6156L9.11562 29.1156ZM32.5 20C32.5 19.6685 32.6317 19.3505 32.8661 19.1161C33.1005 18.8817 33.4185 18.75 33.75 18.75H37.5C37.8315 18.75 38.1495 18.8817 38.3839 19.1161C38.6183 19.3505 38.75 19.6685 38.75 20C38.75 20.3315 38.6183 20.6495 38.3839 20.8839C38.1495 21.1183 37.8315 21.25 37.5 21.25H33.75C33.4185 21.25 33.1005 21.1183 32.8661 20.8839C32.6317 20.6495 32.5 20.3315 32.5 20ZM20 32.5C20.3315 32.5 20.6495 32.6317 20.8839 32.8661C21.1183 33.1005 21.25 33.4185 21.25 33.75V37.5C21.25 37.8315 21.1183 38.1495 20.8839 38.3839C20.6495 38.6183 20.3315 38.75 20 38.75C19.6685 38.75 19.3505 38.6183 19.1161 38.3839C18.8817 38.1495 18.75 37.8315 18.75 37.5V33.75C18.75 33.4185 18.8817 33.1005 19.1161 32.8661C19.3505 32.6317 19.6685 32.5 20 32.5ZM2.5 18.75H6.25C6.58152 18.75 6.89946 18.8817 7.13388 19.1161C7.3683 19.3505 7.5 19.6685 7.5 20C7.5 20.3315 7.3683 20.6495 7.13388 20.8839C6.89946 21.1183 6.58152 21.25 6.25 21.25H2.5C2.16848 21.25 1.85054 21.1183 1.61612 20.8839C1.3817 20.6495 1.25 20.3315 1.25 20C1.25 19.6685 1.3817 19.3505 1.61612 19.1161C1.85054 18.8817 2.16848 18.75 2.5 18.75Z" fill="#DFB556"/>
</svg>
