<svg width="37" height="37" viewBox="0 0 37 37" fill="none" xmlns="http://www.w3.org/2000/svg">
<path d="M4.78945 7.68678C6.77101 8.49461 10.1267 9.42681 13.2686 10.3138C16.1053 11.1154 18.1269 12.1638 18.1269 14.7116C18.1269 15.8689 17.9871 19.3562 17.9368 23.4817C18.3582 23.3748 18.7498 23.3244 19.166 23.3614L19.165 23.2237C19.1259 18.7827 18.981 14.9563 18.982 13.7281C18.9851 11.1288 20.8495 11.4587 23.7787 10.6488C25.1117 10.2799 31.2116 8.916 33.2435 8.48742C34.9475 8.1277 34.2836 7.399 33.7512 6.8255C33.7163 6.93547 33.6001 7.03311 33.3576 7.10609C31.8056 7.57167 22.3439 9.4042 20.0571 10.0445C18.4445 10.4957 16.3663 9.66731 13.8832 8.65803C11.4001 7.64978 5.11628 6.17492 3.87473 5.70934C3.65444 5.62997 3.4544 5.50292 3.2889 5.33728C3.19229 5.39072 3.09362 5.44314 3.00317 5.50275C3.07101 5.49967 3.12651 5.49145 3.19845 5.49042C3.6887 5.4822 2.99803 6.95706 4.78945 7.68678Z" fill="#F5F8FA"/>
<path d="M1.03702 11.174C1.13569 13.7979 1.40291 20.4548 1.15933 23.4467C0.997969 25.4231 1.406 26.901 2.183 27.972C2.39266 27.6297 2.84077 27.3471 3.58077 27.2155C7.437 26.528 13.7332 24.7643 16.2677 23.9924C16.9398 23.7879 17.4599 23.6039 17.9378 23.4827C17.9882 19.3572 18.1279 15.8699 18.1279 14.7126C18.1279 12.1648 16.1063 11.1164 13.2696 10.3148C10.1267 9.42676 6.771 8.49457 4.78944 7.68673C2.99802 6.95701 3.68869 5.48215 3.19844 5.48935C3.12753 5.49037 3.07202 5.49962 3.00316 5.50168C1.32891 6.61065 0.944525 8.74432 1.03702 11.174Z" fill="#ADD3E0"/>
<path d="M34.1304 28.5722C34.5672 28.6719 35.0205 28.8898 35.4337 29.1714C35.8838 28.2392 35.7841 27.0316 35.7163 25.6451C35.594 23.1415 35.7769 15.2656 35.9609 11.6632C36.113 8.67343 35.1161 7.27771 33.7337 6.61993C33.7508 6.65107 33.7613 6.68536 33.7647 6.7207C33.768 6.75604 33.7641 6.7917 33.7532 6.82549C34.2846 7.39899 34.9485 8.12768 33.2455 8.48741C31.2126 8.91599 25.1137 10.2809 23.7807 10.6488C20.8515 11.4587 18.9872 11.1288 18.9841 13.728C18.983 14.9562 19.128 18.7837 19.167 23.2237L19.168 23.3614C19.6511 23.4046 20.1753 23.5608 20.8515 23.902C22.2565 24.6122 32.0369 28.0943 34.1304 28.5722Z" fill="#C1E1EA"/>
<path d="M13.8842 8.65803C16.3674 9.66628 18.4445 10.4957 20.0581 10.0445C22.3449 9.40522 31.8066 7.57167 33.3586 7.10609C33.6022 7.03311 33.7183 6.93547 33.7522 6.8255C33.649 6.71821 33.5509 6.60605 33.4583 6.48942C33.2588 6.41021 33.0546 6.34361 32.8467 6.29003C30.2218 5.61786 24.1764 3.72572 21.6121 2.80997C19.5802 2.08436 17.0005 2.20256 14.8349 2.68767C12.4299 3.22622 7.55724 4.44106 5.12655 4.76378C4.39682 4.86039 3.79455 5.06081 3.28888 5.33831C3.43071 5.48117 3.61777 5.61375 3.87471 5.71036C5.1173 6.17492 11.4011 7.64875 13.8842 8.65803Z" fill="#D2ECF3"/>
<path opacity="0.5" d="M19.166 23.3614C18.7524 23.3306 18.3366 23.3713 17.9368 23.4816L17.9306 23.9883C17.8813 28.8353 18.13 32.8724 18.0611 33.5271C18.0139 33.9773 17.7374 34.3637 17.3242 34.6289C18.168 34.7317 19.0108 34.7194 19.8156 34.5857C19.352 34.19 19.0858 33.56 19.0231 32.9331C18.9574 32.2599 19.204 28.2505 19.166 23.3614Z" fill="#CFE1EA"/>
<path d="M18.0611 33.5271C18.13 32.8724 17.8802 28.8364 17.9306 23.9883L17.9368 23.4816C17.4588 23.6019 16.9388 23.7869 16.2666 23.9914C13.7321 24.7633 7.43595 26.5269 3.57972 27.2145C2.84075 27.3461 2.39161 27.6298 2.18195 27.971C2.7413 28.7384 3.50886 29.3294 4.39372 29.674C6.53047 30.5291 11.3538 32.2383 14.4074 33.7646C15.3324 34.2271 16.3273 34.5056 17.3242 34.6279C17.7384 34.3638 18.0138 33.9773 18.0611 33.5271ZM32.969 30.8344C34.3534 30.4942 35.0719 29.9217 35.4336 29.1714C35.0205 28.8898 34.5672 28.6719 34.1304 28.5722C32.0368 28.0943 22.2555 24.6122 20.8495 23.902C20.1732 23.5608 19.649 23.4035 19.166 23.3614C19.204 28.2516 18.9573 32.2599 19.0241 32.9331C19.0868 33.5611 19.353 34.1901 19.8166 34.5858C20.3255 34.5049 20.8251 34.3733 21.3079 34.1931C23.3829 33.3987 29.7326 31.6278 32.969 30.8344Z" fill="#9BC2D4"/>
<path d="M7.78133 19.2092C3.76169 22.6234 2.3115 29.1992 2.43072 26.2227C2.52939 23.7653 2.41325 16.4722 2.42455 13.4382C2.4338 10.878 2.85211 8.67546 6.25302 10.2572C8.86152 11.47 13.653 12.4299 15.8977 13.9469C17.3479 14.9274 13.3652 14.466 7.78133 19.2092Z" fill="#C1E1EA"/>
<path d="M31.007 15.8679C33.7307 17.7107 34.6752 21.6101 34.6012 19.7539C34.5395 18.2215 34.6073 14.6777 34.6012 12.7866C34.595 11.1905 34.7965 9.83277 32.5487 10.4792C30.6165 11.0342 27.2824 11.3498 25.8825 12.2953C24.9781 12.9058 27.3297 13.3807 31.007 15.8679Z" fill="#D2ECF3"/>
</svg>
