<svg width="53" height="53" viewBox="0 0 53 53" fill="none" xmlns="http://www.w3.org/2000/svg">
<path opacity="0.5" d="M35.9649 41.9583C42.9344 41.9583 48.5834 36.3757 48.5834 29.4879C48.5834 24.0289 45.0346 19.3892 40.0923 17.6998C39.3901 11.4701 34.0415 6.625 27.5512 6.625C20.5817 6.625 14.9328 12.2077 14.9328 19.0955C14.9328 20.6192 15.2088 22.0767 15.7145 23.4282C15.1106 23.3108 14.4968 23.2516 13.8816 23.2515C8.65448 23.2538 4.41669 27.4408 4.41669 32.606C4.41669 37.7713 8.65448 41.9583 13.8816 41.9583H35.9649Z" fill="#757575"/>
<path d="M18 34L21.5 36M21.5 36L27 39M21.5 36L18 37M21.5 36L21 32.5M36 44L32.5 42M32.5 42L27 39M32.5 42L33 45.5M32.5 42L36 41M27 39L21.5 42M27 39V32M27 39V45.5M27 39L32.5 36M21.5 42L18 44M21.5 42L18 41M21.5 42L21 45.5M27 32V29M27 32L24.5 31M27 32L29.5 31M27 45.5V49M27 45.5L29.5 47M27 45.5L24.5 47M32.5 36L36 34M32.5 36L36 37M32.5 36L33 32.5" stroke="white" stroke-width="1.5" stroke-linecap="round" stroke-linejoin="round"/>
</svg>
