<svg width="54" height="54" viewBox="0 0 54 54" fill="none" xmlns="http://www.w3.org/2000/svg">
<path opacity="0.5" d="M36.6435 42.75C43.7445 42.75 49.5 37.062 49.5 30.0442C49.5 24.4822 45.8843 19.755 40.8488 18.0338C40.1333 11.6865 34.6837 6.75 28.071 6.75C20.97 6.75 15.2145 12.438 15.2145 19.4558C15.2145 21.0083 15.4958 22.4933 16.011 23.8703C15.3957 23.7506 14.7703 23.6903 14.1435 23.6903C8.81775 23.6925 4.5 27.9585 4.5 33.2213C4.5 38.484 8.81775 42.75 14.1435 42.75H36.6435Z" fill="black"/>
<path fill-rule="evenodd" clip-rule="evenodd" d="M24.4215 32.6475C24.5662 32.8155 24.6764 33.0103 24.7458 33.2208C24.8151 33.4314 24.8424 33.6535 24.8258 33.8746C24.8093 34.0956 24.7494 34.3113 24.6496 34.5092C24.5497 34.7071 24.4118 34.8834 24.2438 35.028L18.045 40.3718H23.1435C23.4879 40.3717 23.8241 40.4769 24.107 40.6735C24.3898 40.87 24.6057 41.1484 24.7258 41.4712C24.8458 41.794 24.8641 42.1459 24.7784 42.4794C24.6926 42.813 24.5069 43.1123 24.246 43.3373L14.6025 51.6443C14.4347 51.789 14.24 51.8993 14.0295 51.9689C13.8191 52.0384 13.597 52.0658 13.3759 52.0495C13.1549 52.0332 12.9392 51.9735 12.7412 51.8739C12.5432 51.7743 12.3668 51.6366 12.222 51.4688C12.0772 51.3009 11.9669 51.1062 11.8974 50.8958C11.8279 50.6853 11.8005 50.4632 11.8168 50.2422C11.833 50.0211 11.8927 49.8054 11.9924 49.6074C12.092 49.4095 12.2297 49.233 12.3975 49.0883L18.5985 43.7468H13.5C13.1551 43.7474 12.8182 43.6423 12.5348 43.4457C12.2515 43.249 12.0351 42.9703 11.915 42.6469C11.7949 42.3236 11.7767 41.9712 11.863 41.6372C11.9493 41.3032 12.1358 41.0037 12.3975 40.779L22.041 32.472C22.209 32.3273 22.4038 32.2171 22.6143 32.1478C22.8249 32.0784 23.047 32.0512 23.2681 32.0677C23.4892 32.0842 23.7048 32.1441 23.9027 32.244C24.1006 32.3438 24.2769 32.4795 24.4215 32.6475Z" fill="#FFD600"/>
<path d="M35.436 34.875C35.436 34.4278 35.2585 33.9989 34.9425 33.6825C34.6261 33.3665 34.1972 33.189 33.75 33.189C33.3028 33.189 32.8739 33.3665 32.5575 33.6825L28.0575 38.1825C27.7594 38.5024 27.5972 38.9255 27.6049 39.3627C27.6126 39.7998 27.7897 40.2169 28.0989 40.5261C28.4081 40.8353 28.8252 41.0124 29.2623 41.0201C29.6995 41.0278 30.1226 40.8656 30.4425 40.5675L34.9425 36.0675C35.2585 35.7511 35.436 35.3222 35.436 34.875Z" fill="#A8DAFF"/>
<path d="M39.936 42.75C39.936 42.3028 39.7585 41.8739 39.4425 41.5575C39.1261 41.2415 38.6972 41.064 38.25 41.064C37.8028 41.064 37.3739 41.2415 37.0575 41.5575L32.5575 46.0575C32.2594 46.3774 32.0972 46.8005 32.1049 47.2377C32.1126 47.6748 32.2897 48.092 32.5989 48.4011C32.9081 48.7103 33.3252 48.8874 33.7623 48.8951C34.1995 48.9028 34.6226 48.7406 34.9425 48.4425L39.4425 43.9425C39.7585 43.6261 39.936 43.1972 39.936 42.75Z" fill="#A8DAFF"/>
<path d="M30.936 45C30.936 44.5528 30.7585 44.1239 30.4425 43.8075C30.1261 43.4915 29.6972 43.314 29.25 43.314C28.8028 43.314 28.3739 43.4915 28.0575 43.8075L23.5575 48.3075C23.2594 48.6274 23.0972 49.0505 23.1049 49.4877C23.1126 49.9248 23.2897 50.3419 23.5989 50.6511C23.9081 50.9603 24.3252 51.1374 24.7623 51.1451C25.1995 51.1528 25.6226 50.9906 25.9425 50.6925L30.4425 46.1925C30.7585 45.8761 30.936 45.4472 30.936 45Z" fill="#A8DAFF"/>
</svg>
