<svg width="54" height="54" viewBox="0 0 54 54" fill="none" xmlns="http://www.w3.org/2000/svg">
<path opacity="0.5" d="M15.75 27C21.9632 27 27 21.9632 27 15.75C27 9.5368 21.9632 4.5 15.75 4.5C9.5368 4.5 4.5 9.5368 4.5 15.75C4.5 21.9632 9.5368 27 15.75 27Z" fill="#FFB800"/>
<path d="M36.6435 45C43.7445 45 49.5 39.312 49.5 32.2942C49.5 26.7322 45.8843 22.005 40.8488 20.2838C40.1333 13.9365 34.6837 9 28.071 9C20.97 9 15.2145 14.688 15.2145 21.7058C15.2145 23.2583 15.4958 24.7433 16.011 26.1203C15.3957 26.0006 14.7703 25.9403 14.1435 25.9403C8.81775 25.9425 4.5 30.2085 4.5 35.4713C4.5 40.734 8.81775 45 14.1435 45H36.6435Z" fill="white"/>
</svg>
