<svg width="473" height="172" viewBox="0 0 473 172" fill="none" xmlns="http://www.w3.org/2000/svg">
<path d="M97 47H41.7921C39.9842 47 38.2295 46.3876 36.8142 45.2626L22.8128 34.1333C21.1943 32.8468 21.3317 30.3471 23.0815 29.2458L34.9302 21.7883L63.0557 3.53354C66.3671 1.38433 70.6329 1.38433 73.9442 3.53355L130.195 40.0431C133.036 41.8871 134.751 45.044 134.751 48.4312V123.569C134.751 126.956 133.036 130.113 130.195 131.957L73.9442 168.466C70.6329 170.616 66.3671 170.616 63.0557 168.466L6.80476 131.957C3.9636 130.113 2.24902 126.956 2.24902 123.569V48.4312C2.24902 47.4495 2.39304 46.4872 2.66676 45.5705C3.87634 41.52 9.04746 41.7565 12.4066 44.3228L25.8567 54.5985C27.8377 56.112 29 58.4626 29 60.9556V115C29 120.523 33.4771 125 39 125H97C102.523 125 107 120.523 107 115V57C107 51.4771 102.523 47 97 47Z" stroke="white" stroke-width="3"/>
<path d="M54 73C58.4182 73 62 69.4182 62 65C62 60.5817 58.4182 57 54 57C49.5817 57 46 60.5817 46 65C46 69.4182 49.5817 73 54 73Z" stroke="white" stroke-width="3"/>
<path d="M54 94C58.4182 94 62 90.4182 62 86C62 81.5817 58.4182 78 54 78C49.5817 78 46 81.5817 46 86C46 90.4182 49.5817 94 54 94Z" stroke="white" stroke-width="3"/>
<path d="M83 94C87.4183 94 91 90.4182 91 86C91 81.5817 87.4183 78 83 78C78.5817 78 75 81.5817 75 86C75 90.4182 78.5817 94 83 94Z" stroke="white" stroke-width="3"/>
<path d="M54 115C58.4182 115 62 111.418 62 107C62 102.582 58.4182 99 54 99C49.5817 99 46 102.582 46 107C46 111.418 49.5817 115 54 115Z" stroke="white" stroke-width="3"/>
<path d="M83 115C87.4183 115 91 111.418 91 107C91 102.582 87.4183 99 83 99C78.5817 99 75 102.582 75 107C75 111.418 78.5817 115 83 115Z" stroke="white" stroke-width="3"/>
<path d="M83 73C87.4183 73 91 69.4182 91 65C91 60.5817 87.4183 57 83 57C78.5817 57 75 60.5817 75 65C75 69.4182 78.5817 73 83 73Z" stroke="white" stroke-width="3"/>
<path d="M192.851 97.855H174.915L171.611 107H165.947L180.815 66.113H187.01L201.819 107H196.155L192.851 97.855ZM191.317 93.489L183.883 72.721L176.449 93.489H191.317ZM213.668 63.34V107H208.299V63.34H213.668ZM252.318 89.595C252.318 90.6177 252.259 91.6993 252.141 92.84H226.299C226.496 96.026 227.578 98.5237 229.544 100.333C231.55 102.103 233.969 102.988 236.801 102.988C239.122 102.988 241.049 102.457 242.583 101.395C244.157 100.294 245.258 98.8383 245.887 97.029H251.669C250.804 100.136 249.073 102.673 246.477 104.64C243.881 106.567 240.656 107.531 236.801 107.531C233.733 107.531 230.98 106.843 228.541 105.466C226.142 104.089 224.254 102.142 222.877 99.625C221.501 97.0683 220.812 94.1183 220.812 90.775C220.812 87.4317 221.481 84.5013 222.818 81.984C224.156 79.4667 226.024 77.5393 228.423 76.202C230.862 74.8253 233.655 74.137 236.801 74.137C239.869 74.137 242.583 74.8057 244.943 76.143C247.303 77.4803 249.113 79.329 250.371 81.689C251.669 84.0097 252.318 86.645 252.318 89.595ZM246.772 88.474C246.772 86.4287 246.32 84.6783 245.415 83.223C244.511 81.7283 243.272 80.6073 241.698 79.86C240.164 79.0733 238.453 78.68 236.565 78.68C233.851 78.68 231.531 79.5453 229.603 81.276C227.715 83.0067 226.634 85.406 226.358 88.474H246.772ZM242.347 65.523L229.78 72.249V68.237L242.347 60.862V65.523ZM257.399 90.716C257.399 87.412 258.068 84.521 259.405 82.043C260.743 79.5257 262.572 77.5787 264.892 76.202C267.252 74.8253 269.868 74.137 272.739 74.137C275.571 74.137 278.03 74.7467 280.114 75.966C282.199 77.1853 283.753 78.7193 284.775 80.568V74.668H290.203V107H284.775V100.982C283.713 102.87 282.12 104.443 279.996 105.702C277.912 106.921 275.473 107.531 272.68 107.531C269.809 107.531 267.213 106.823 264.892 105.407C262.572 103.991 260.743 102.005 259.405 99.448C258.068 96.8913 257.399 93.9807 257.399 90.716ZM284.775 90.775C284.775 88.3363 284.284 86.2123 283.3 84.403C282.317 82.5937 280.98 81.217 279.288 80.273C277.636 79.2897 275.807 78.798 273.801 78.798C271.795 78.798 269.966 79.27 268.314 80.214C266.662 81.158 265.345 82.5347 264.361 84.344C263.378 86.1533 262.886 88.2773 262.886 90.716C262.886 93.194 263.378 95.3573 264.361 97.206C265.345 99.0153 266.662 100.412 268.314 101.395C269.966 102.339 271.795 102.811 273.801 102.811C275.807 102.811 277.636 102.339 279.288 101.395C280.98 100.412 282.317 99.0153 283.3 97.206C284.284 95.3573 284.775 93.2137 284.775 90.775ZM297.27 90.775C297.27 87.4317 297.939 84.521 299.276 82.043C300.614 79.5257 302.462 77.5787 304.822 76.202C307.222 74.8253 309.955 74.137 313.023 74.137C316.996 74.137 320.261 75.1007 322.817 77.028C325.413 78.9553 327.124 81.63 327.95 85.052H322.168C321.618 83.0853 320.536 81.5317 318.923 80.391C317.35 79.2503 315.383 78.68 313.023 78.68C309.955 78.68 307.477 79.742 305.589 81.866C303.701 83.9507 302.757 86.9203 302.757 90.775C302.757 94.669 303.701 97.678 305.589 99.802C307.477 101.926 309.955 102.988 313.023 102.988C315.383 102.988 317.35 102.437 318.923 101.336C320.497 100.235 321.578 98.6613 322.168 96.616H327.95C327.085 99.92 325.354 102.575 322.758 104.581C320.162 106.548 316.917 107.531 313.023 107.531C309.955 107.531 307.222 106.843 304.822 105.466C302.462 104.089 300.614 102.142 299.276 99.625C297.939 97.1077 297.27 94.1577 297.27 90.775ZM341.663 79.093V98.15C341.663 99.7233 341.998 100.844 342.666 101.513C343.335 102.142 344.495 102.457 346.147 102.457H350.1V107H345.262C342.273 107 340.031 106.312 338.536 104.935C337.042 103.558 336.294 101.297 336.294 98.15V79.093H332.105V74.668H336.294V66.526H341.663V74.668H350.1V79.093H341.663ZM359.379 69.417C358.356 69.417 357.491 69.063 356.783 68.355C356.075 67.647 355.721 66.7817 355.721 65.759C355.721 64.7363 356.075 63.871 356.783 63.163C357.491 62.455 358.356 62.101 359.379 62.101C360.362 62.101 361.188 62.455 361.857 63.163C362.565 63.871 362.919 64.7363 362.919 65.759C362.919 66.7817 362.565 67.647 361.857 68.355C361.188 69.063 360.362 69.417 359.379 69.417ZM361.975 74.668V107H356.606V74.668H361.975ZM383.161 102.044L393.191 74.668H398.914L386.229 107H379.975L367.29 74.668H373.072L383.161 102.044ZM406.97 69.417C405.948 69.417 405.082 69.063 404.374 68.355C403.666 67.647 403.312 66.7817 403.312 65.759C403.312 64.7363 403.666 63.871 404.374 63.163C405.082 62.455 405.948 62.101 406.97 62.101C407.954 62.101 408.78 62.455 409.448 63.163C410.156 63.871 410.51 64.7363 410.51 65.759C410.51 66.7817 410.156 67.647 409.448 68.355C408.78 69.063 407.954 69.417 406.97 69.417ZM409.566 74.668V107H404.197V74.668H409.566ZM425.266 79.093V98.15C425.266 99.7233 425.6 100.844 426.269 101.513C426.937 102.142 428.098 102.457 429.75 102.457H433.703V107H428.865C425.875 107 423.633 106.312 422.139 104.935C420.644 103.558 419.897 101.297 419.897 98.15V79.093H415.708V74.668H419.897V66.526H425.266V74.668H433.703V79.093H425.266ZM469.708 89.595C469.708 90.6177 469.649 91.6993 469.531 92.84H443.689C443.886 96.026 444.967 98.5237 446.934 100.333C448.94 102.103 451.359 102.988 454.191 102.988C456.512 102.988 458.439 102.457 459.973 101.395C461.546 100.294 462.648 98.8383 463.277 97.029H469.059C468.194 100.136 466.463 102.673 463.867 104.64C461.271 106.567 458.046 107.531 454.191 107.531C451.123 107.531 448.37 106.843 445.931 105.466C443.532 104.089 441.644 102.142 440.267 99.625C438.89 97.0683 438.202 94.1183 438.202 90.775C438.202 87.4317 438.871 84.5013 440.208 81.984C441.545 79.4667 443.414 77.5393 445.813 76.202C448.252 74.8253 451.044 74.137 454.191 74.137C457.259 74.137 459.973 74.8057 462.333 76.143C464.693 77.4803 466.502 79.329 467.761 81.689C469.059 84.0097 469.708 86.645 469.708 89.595ZM464.162 88.474C464.162 86.4287 463.71 84.6783 462.805 83.223C461.9 81.7283 460.661 80.6073 459.088 79.86C457.554 79.0733 455.843 78.68 453.955 78.68C451.241 78.68 448.92 79.5453 446.993 81.276C445.105 83.0067 444.023 85.406 443.748 88.474H464.162ZM459.737 65.523L447.17 72.249V68.237L459.737 60.862V65.523Z" fill="white"/>
</svg>
