<svg width="24" height="24" viewBox="0 0 24 24" fill="none" xmlns="http://www.w3.org/2000/svg">
<path d="M12 6.1875C11.2954 6.1875 10.6066 6.39644 10.0208 6.78789C9.43493 7.17934 8.97832 7.73573 8.70868 8.38669C8.43904 9.03765 8.36849 9.75395 8.50595 10.445C8.64341 11.1361 8.98271 11.7708 9.48093 12.2691C9.97916 12.7673 10.6139 13.1066 11.305 13.244C11.996 13.3815 12.7123 13.311 13.3633 13.0413C14.0143 12.7717 14.5707 12.3151 14.9621 11.7292C15.3536 11.1434 15.5625 10.4546 15.5625 9.75C15.5625 8.80517 15.1872 7.89903 14.5191 7.23093C13.851 6.56283 12.9448 6.1875 12 6.1875ZM12 12.1875C11.5179 12.1875 11.0466 12.0445 10.6458 11.7767C10.245 11.5089 9.93253 11.1282 9.74804 10.6828C9.56356 10.2374 9.51528 9.7473 9.60934 9.27447C9.70339 8.80164 9.93554 8.36732 10.2764 8.02643C10.6173 7.68554 11.0516 7.45339 11.5245 7.35934C11.9973 7.26528 12.4874 7.31356 12.9328 7.49804C13.3782 7.68253 13.7589 7.99495 14.0267 8.3958C14.2945 8.79664 14.4375 9.26791 14.4375 9.75C14.4375 10.3965 14.1807 11.0165 13.7236 11.4736C13.2665 11.9307 12.6465 12.1875 12 12.1875ZM12 1.6875C9.86245 1.68998 7.81317 2.54022 6.30169 4.05169C4.79022 5.56317 3.93998 7.61245 3.9375 9.75C3.9375 12.6478 5.28188 15.7256 7.82531 18.6506C8.97329 19.9773 10.2653 21.1722 11.6775 22.2131C11.772 22.2793 11.8846 22.3148 12 22.3148C12.1154 22.3148 12.228 22.2793 12.3225 22.2131C13.7347 21.1722 15.0267 19.9773 16.1747 18.6506C18.7181 15.7256 20.0625 12.6506 20.0625 9.75C20.06 7.61245 19.2098 5.56317 17.6983 4.05169C16.1868 2.54022 14.1375 1.68998 12 1.6875ZM12 21.0478C10.5938 19.9622 5.0625 15.3394 5.0625 9.75C5.0625 7.91006 5.79341 6.14548 7.09445 4.84445C8.39548 3.54341 10.1601 2.8125 12 2.8125C13.8399 2.8125 15.6045 3.54341 16.9056 4.84445C18.2066 6.14548 18.9375 7.91006 18.9375 9.75C18.9375 15.3394 13.4062 19.9622 12 21.0478Z" fill="white"/>
</svg>
