<svg width="49" height="47" viewBox="0 0 49 47" fill="none" xmlns="http://www.w3.org/2000/svg">
<path d="M48.195 17.4346C47.9637 16.7167 47.5382 16.0768 46.9656 15.5857C46.393 15.0947 45.6958 14.7717 44.951 14.6525L33.2639 12.7532L27.8461 2.22515C27.501 1.55492 26.978 0.992696 26.3344 0.600175C25.6908 0.207653 24.9515 0 24.1976 0C23.4438 0 22.7045 0.207653 22.0609 0.600175C21.4173 0.992696 20.8942 1.55492 20.5491 2.22515L15.1313 12.7532L3.4445 14.6525C2.70045 14.7736 2.00413 15.0973 1.43195 15.5881C0.859761 16.0789 0.433823 16.7178 0.200865 17.4348C-0.0320926 18.1517 -0.0630676 18.919 0.111339 19.6524C0.285745 20.3858 0.658793 21.0569 1.18955 21.5923L9.52815 29.9982L7.7233 41.7C7.60749 42.4453 7.69947 43.2081 7.98913 43.9046C8.2788 44.601 8.75491 45.204 9.36512 45.6474C9.97534 46.0907 10.696 46.3572 11.4478 46.4175C12.1997 46.4778 12.9536 46.3295 13.6267 45.9891L24.1976 40.6562L34.7689 45.9891C35.442 46.3288 36.1957 46.4765 36.9473 46.4159C37.6988 46.3554 38.4192 46.0888 39.0292 45.6456C39.6392 45.2025 40.1152 44.5997 40.4051 43.9037C40.695 43.2076 40.7874 42.4451 40.6723 41.7L38.8674 29.9982L47.206 21.5923C47.7384 21.058 48.1127 20.3868 48.2872 19.653C48.4618 18.9192 48.4299 18.1514 48.195 17.4346ZM44.9151 19.3201L35.43 28.8816L37.4833 42.1921C37.5088 42.3516 37.4896 42.5149 37.4279 42.6641C37.3662 42.8132 37.2645 42.9424 37.1339 43.0373C37.0033 43.1322 36.8489 43.1891 36.688 43.2016C36.5271 43.2142 36.3658 43.182 36.2221 43.1085L24.1976 37.0424L12.1731 43.1087C12.0294 43.1822 11.8681 43.2144 11.7072 43.2018C11.5462 43.1893 11.3919 43.1324 11.2613 43.0375C11.1307 42.9426 11.0289 42.8134 10.9672 42.6643C10.9056 42.5151 10.8864 42.3518 10.9118 42.1923L12.9652 28.8816L3.4803 19.32C3.36703 19.2055 3.28744 19.0621 3.25025 18.9055C3.21306 18.7488 3.21971 18.585 3.26946 18.4318C3.31922 18.2787 3.41016 18.1422 3.53232 18.0373C3.65449 17.9324 3.80316 17.8632 3.96206 17.8372L17.2555 15.6768L23.4181 3.70159C23.4918 3.55835 23.6035 3.43818 23.7411 3.35428C23.8786 3.27038 24.0365 3.22599 24.1976 3.22599C24.3587 3.22599 24.5167 3.27038 24.6542 3.35428C24.7917 3.43818 24.9035 3.55835 24.9771 3.70159L31.1397 15.6768L44.4332 17.8372C44.5921 17.8632 44.7408 17.9324 44.8629 18.0373C44.9851 18.1422 45.076 18.2787 45.1258 18.4318C45.1756 18.585 45.1822 18.7488 45.145 18.9055C45.1078 19.0621 45.0283 19.2056 44.9151 19.3201Z" fill="#E8591C"/>
<path d="M44.9151 19.3201L35.43 28.8816L37.4833 42.1921C37.5088 42.3516 37.4896 42.5149 37.4279 42.6641C37.3662 42.8132 37.2645 42.9424 37.1339 43.0373C37.0033 43.1322 36.8489 43.1891 36.688 43.2016C36.5271 43.2142 36.3658 43.182 36.2221 43.1085L24.1976 37.0424L12.1731 43.1087C12.0294 43.1822 11.8681 43.2144 11.7072 43.2018C11.5462 43.1893 11.3919 43.1324 11.2613 43.0375C11.1307 42.9426 11.0289 42.8134 10.9672 42.6643C10.9056 42.5151 10.8864 42.3518 10.9118 42.1923L12.9652 28.8816L3.4803 19.32C3.36703 19.2055 3.28744 19.0621 3.25025 18.9055C3.21306 18.7488 3.21971 18.585 3.26946 18.4318C3.31922 18.2787 3.41016 18.1422 3.53232 18.0373C3.65449 17.9324 3.80316 17.8632 3.96206 17.8372L17.2555 15.6768L23.4181 3.70159C23.4918 3.55835 23.6035 3.43818 23.7411 3.35428C23.8786 3.27038 24.0365 3.22599 24.1976 3.22599C24.3587 3.22599 24.5167 3.27038 24.6542 3.35428C24.7917 3.43818 24.9035 3.55835 24.9771 3.70159L31.1397 15.6768L44.4332 17.8372C44.5921 17.8632 44.7408 17.9324 44.8629 18.0373C44.9851 18.1422 45.076 18.2787 45.1258 18.4318C45.1756 18.585 45.1822 18.7488 45.145 18.9055C45.1078 19.0621 45.0283 19.2056 44.9151 19.3201Z" fill="#E8591C"/>
</svg>
